<?xml version="1.0" encoding="UTF-8"?>
<svg id="Capa_1" data-name="Capa 1" xmlns="http://www.w3.org/2000/svg" version="1.1" viewBox="0 0 50 50">
  <defs>
    <style>
      .cls-1 {
        fill: #fff;
        stroke-width: 0px;
      }
    </style>
  </defs>
  <path class="cls-1" d="M25,20.92l.25.88c.41,1.43,1.53,2.55,2.96,2.96l.88.25-.88.25c-1.43.41-2.55,1.53-2.96,2.96l-.25.88-.25-.88c-.41-1.43-1.53-2.55-2.96-2.96l-.88-.25.88-.25c1.43-.41,2.55-1.53,2.96-2.96l.25-.88Z"/>
  <path class="cls-1" d="M4.92,17.36v6.9H.5c0-.17,0-.33,0-.49,0-3.04,0-6.08,0-9.12C.52,6.83,5.84.53,12.44.5c.73,0,1.45,0,2.21,0v12.83c-.13,0-.27.03-.41.03-2.5,0-5.01,0-7.51,0-.48,0-.96.02-1.44.02-.2,0-.3.07-.3.32,0,.74,0,1.49,0,2.31h9.68v2.65c.92-.31,1.7-.8,2.39-1.45,1.96-1.86,2.96-4.29,2.96-7.27,0-2.95,0-5.91,0-8.86,0-.17,0-.34,0-.54h4.42c0,.17,0,.34,0,.5,0,3.03,0,6.05,0,9.08-.01,7.26-4.53,13.27-10.62,14.08-1.06.14-2.14.08-3.21.1-.1,0-.19-.01-.33-.02v-6.92h-5.35ZM11.37,4.52v7.5h2.18V1.75c-.85.05-1.68.04-2.49.16C5.66,2.71,1.61,8.16,1.59,14.62c0,2.64,0,5.29,0,7.93,0,.14.01.28.02.43h2.21c0-.21,0-.38,0-.56,0-2.51-.02-5.03,0-7.54.03-3.62,1.26-6.53,3.76-8.64,1.11-.94,2.36-1.48,3.79-1.74ZM11.37,23.02c.38,0,.73,0,1.08,0,6.04-.02,10.87-5.76,10.88-12.92,0-2.6,0-5.2,0-7.8,0-.16,0-.31,0-.48h-2.23c0,.21,0,.38,0,.55,0,2.53.03,5.06,0,7.58-.06,4.21-1.67,7.34-4.81,9.32-.83.52-1.73.83-2.73.99v-2.89h-2.19v5.64ZM10.23,12.05v-5.86c-2.29.67-4.45,3.4-4.92,5.86h4.92Z"/>
  <path class="cls-1" d="M39.73,17.36v6.92c-.14,0-.24.02-.33.02-1.07-.03-2.15.04-3.21-.1-6.08-.81-10.6-6.82-10.62-14.08,0-3.03,0-6.05,0-9.08,0-.17,0-.34,0-.5h4.42c0,.2,0,.37,0,.54,0,2.95,0,5.91,0,8.86,0,2.99,1,5.41,2.96,7.27.69.66,1.47,1.15,2.39,1.45v-2.65h9.68c0-.82,0-1.56,0-2.31,0-.25-.1-.32-.3-.32-.48,0-.96-.02-1.44-.02-2.5,0-5.01,0-7.51,0-.14,0-.28-.02-.41-.03,0-4.3,0-8.55,0-12.83.76,0,1.48,0,2.21,0,6.6.03,11.92,6.33,11.94,14.15,0,3.04,0,6.08,0,9.12,0,.16,0,.31,0,.49h-4.41c0-2.31,0-4.58,0-6.9h-5.35ZM42.42,6.26c2.5,2.11,3.73,5.01,3.76,8.64.02,2.51,0,5.03,0,7.54,0,.17,0,.35,0,.56h2.21c0-.15.02-.29.02-.43,0-2.64,0-5.29,0-7.93-.02-6.46-4.07-11.91-9.47-12.71-.81-.12-1.64-.11-2.49-.16,0,3.47,0,6.85,0,10.27h2.18c0-2.48,0-4.95,0-7.5,1.43.26,2.68.8,3.79,1.74ZM38.63,17.38h-2.19v2.89c-1-.16-1.9-.47-2.73-.99-3.14-1.98-4.75-5.11-4.81-9.32-.04-2.53,0-5.06,0-7.58,0-.17,0-.35,0-.55h-2.23c0,.17,0,.32,0,.48,0,2.6,0,5.2,0,7.8.01,7.16,4.85,12.89,10.88,12.92.35,0,.71,0,1.08,0v-5.64ZM44.69,12.05c-.46-2.46-2.63-5.19-4.92-5.86,0,1.95,0,3.89,0,5.86h4.92Z"/>
  <path class="cls-1" d="M45.08,32.64c0-2.32,0-4.6,0-6.9h4.41c0,.17,0,.33,0,.49,0,3.04,0,6.08,0,9.12-.02,7.82-5.34,14.13-11.94,14.15-.73,0-1.45,0-2.21,0,0-4.28,0-8.52,0-12.83.13,0,.27-.03.41-.03,2.5,0,5.01,0,7.51,0,.48,0,.96-.02,1.44-.02.2,0,.3-.07.3-.32,0-.74,0-1.49,0-2.31-3.19,0-6.42,0-9.68,0v-2.65c-.92.31-1.7.8-2.39,1.45-1.96,1.86-2.96,4.29-2.96,7.27,0,2.95,0,5.91,0,8.86,0,.17,0,.34,0,.54h-4.42c0-.17,0-.34,0-.5,0-3.03,0-6.05,0-9.08.01-7.26,4.53-13.27,10.62-14.08,1.06-.14,2.14-.08,3.21-.1.1,0,.19.01.33.02v6.92c1.79,0,3.55,0,5.35,0ZM38.63,45.48c0-2.54,0-5.02,0-7.5h-2.18c0,3.42,0,6.8,0,10.27.85-.05,1.68-.04,2.49-.16,5.4-.8,9.46-6.25,9.47-12.71,0-2.64,0-5.29,0-7.93,0-.14-.01-.28-.02-.43h-2.21c0,.21,0,.38,0,.56,0,2.51.02,5.03,0,7.54-.03,3.62-1.26,6.53-3.76,8.64-1.11.94-2.36,1.48-3.79,1.74ZM38.63,26.98c-.38,0-.73,0-1.08,0-6.04.02-10.87,5.76-10.88,12.92,0,2.6,0,5.2,0,7.8,0,.16,0,.31,0,.48h2.23c0-.21,0-.38,0-.55,0-2.53-.03-5.06,0-7.58.06-4.21,1.67-7.34,4.81-9.32.83-.52,1.73-.83,2.73-.99v2.89h2.19v-5.64ZM39.77,37.95c0,1.97,0,3.91,0,5.86,2.29-.67,4.45-3.4,4.92-5.86h-4.92Z"/>
  <path class="cls-1" d="M10.27,32.61v-6.92c.14,0,.24-.02.33-.02,1.07.03,2.15-.04,3.21.1,6.08.81,10.6,6.82,10.62,14.08,0,3.03,0,6.05,0,9.08,0,.17,0,.34,0,.5-1.5,0-2.94,0-4.42,0,0-.2,0-.37,0-.54,0-2.95,0-5.91,0-8.86,0-2.99-1-5.41-2.96-7.27-.69-.66-1.47-1.15-2.39-1.45v2.65c-3.26,0-6.49,0-9.68,0,0,.82,0,1.56,0,2.31,0,.25.1.32.3.32.48,0,.96.02,1.44.02,2.5,0,5.01,0,7.51,0,.14,0,.28.02.41.03v12.83c-.76,0-1.48,0-2.21,0-6.6-.03-11.92-6.33-11.94-14.15,0-3.04,0-6.08,0-9.12,0-.16,0-.31,0-.49h4.41v6.9h5.35ZM7.58,43.71c-2.5-2.11-3.73-5.01-3.76-8.64-.02-2.51,0-5.03,0-7.54,0-.17,0-.35,0-.56H1.61c0,.15-.02.29-.02.43,0,2.64,0,5.29,0,7.93.02,6.46,4.07,11.91,9.47,12.71.81.12,1.64.11,2.49.16v-10.27h-2.18v7.5c-1.43-.26-2.68-.8-3.79-1.74ZM11.37,32.59h2.19v-2.89c1,.16,1.9.47,2.73.99,3.14,1.98,4.75,5.11,4.81,9.32.04,2.53,0,5.06,0,7.58,0,.17,0,.35,0,.55h2.23c0-.17,0-.32,0-.48,0-2.6,0-5.2,0-7.8-.01-7.16-4.85-12.89-10.88-12.92-.35,0-.71,0-1.08,0v5.64ZM5.31,37.92c.46,2.46,2.63,5.19,4.92,5.86v-5.86c-1.65,0-3.28,0-4.92,0Z"/>
</svg>